# xmcd
#
# Track frame offsets:
#	150
#	13348
#	27365
#	43851
#	62663
#	80742
#	98107
#	115536
#	131258
#	147923
#	164513
#	179526
#	194987
#	211586
#	228138
#	242652
#	258825
#	272007
#
# Disc length: 3832 seconds
#
# Revision: 1
# Processed by: cddbd v1.5.1PL2 Copyright (c) Steve Scherf et al.
# Submitted via: audiograbber 1.83.01
#
DISCID=fc0ef612
DTITLE=RADIJSKI FESTIVAL 2004 - RADIJSKI FESTIVAL 2004
DYEAR=2004
DGENRE=Pop
TTITLE0=AMADEUS BEND - Ona i ja
TTITLE1=NATASA KOJIC - Fali mi osmeh tvoj
TTITLE2=JELLENA - Umri za mnom
TTITLE3=SASA VASIC - Nisam kao ti
TTITLE4=KSENIJA MIJATOVIC - Znaci
TTITLE5=IGOR STAROVIC - Podvala
TTITLE6=LIDIJA - Utopija
TTITLE7=MARKO JEFTIC - Lud za njom
TTITLE8=NEDA UKRADEN - Ljubomora
TTITLE9=LEONTINA - Krila
TTITLE10=BEAT STREET - Osecaj los
TTITLE11=PERO STEFANOVIC - Zig ljubavi
TTITLE12=ALLEGRO - Kasno je
TTITLE13=BABY DOLL - Samba jao, jao
TTITLE14=CHARTER - Pusti me
TTITLE15=ALEKSANDRA PEROVIC - Zima mi je
TTITLE16=BOJAN BJELIC - Bebo, vrati se
TTITLE17=IVANA I LJUBAN - Srce kamenja
EXTD=
EXTT0=
EXTT1=
EXTT2=
EXTT3=
EXTT4=
EXTT5=
EXTT6=
EXTT7=
EXTT8=
EXTT9=
EXTT10=
EXTT11=
EXTT12=
EXTT13=
EXTT14=
EXTT15=
EXTT16=
EXTT17=
PLAYORDER=
